<svg width="36" height="36" viewBox="0 0 36 36" fill="none" xmlns="http://www.w3.org/2000/svg">
<rect width="36" height="36" fill="#2C2A30"/>
<path d="M12.0002 13H23.3392C23.6276 13 23.9126 13.0623 24.1746 13.1827C24.4366 13.3031 24.6695 13.4788 24.8573 13.6976C25.0451 13.9164 25.1833 14.1733 25.2625 14.4506C25.3417 14.7279 25.3601 15.019 25.3162 15.304L24.0612 23.456C23.9523 24.1644 23.5933 24.8105 23.0492 25.2771C22.5052 25.7438 21.812 26.0002 21.0952 26H14.2432C13.5266 26 12.8337 25.7434 12.2899 25.2768C11.746 24.8102 11.3872 24.1643 11.2782 23.456L10.0232 15.304C9.97941 15.019 9.99773 14.7279 10.0769 14.4506C10.1562 14.1733 10.2944 13.9164 10.4822 13.6976C10.67 13.4788 10.9029 13.3031 11.1649 13.1827C11.4269 13.0623 11.7119 13 12.0002 13Z" stroke="white" stroke-width="2" stroke-linecap="round" stroke-linejoin="round"/>
<path d="M14.6694 15V10C14.6694 9.20435 14.9855 8.44129 15.5481 7.87868C16.1107 7.31607 16.8738 7 17.6694 7C18.4651 7 19.2281 7.31607 19.7908 7.87868C20.3534 8.44129 20.6694 9.20435 20.6694 10V15" stroke="white" stroke-width="2" stroke-linecap="round" stroke-linejoin="round"/>
</svg>
